<svg width="80" height="80" viewBox="0 0 80 80" fill="none" xmlns="http://www.w3.org/2000/svg">
<path d="M39.1719 24.6562C40.0443 24.6562 40.4805 24.9557 40.4805 25.5547C40.4805 26.349 39.875 27.5599 38.6641 29.1875C37.6875 30.4896 36.2878 31.362 34.4648 31.8047C33.918 31.9479 33.4167 32.0195 32.9609 32.0195C32.5182 32.0195 32.0365 31.987 31.5156 31.9219C30.1745 31.7526 28.4948 31.6419 26.4766 31.5898C24.888 34.4023 23.7161 36.5508 22.9609 38.0352L25.9883 37.957C26.6003 37.9831 27.349 37.9505 28.2344 37.8594L30.1875 37.6836C30.5781 37.6445 30.8385 37.6185 30.9688 37.6055C31.5026 37.5534 31.8346 37.625 31.9648 37.8203C32.2122 38.1719 32.3359 38.582 32.3359 39.0508C32.3359 39.5195 32.3034 39.9232 32.2383 40.2617C32.1732 40.5872 32.082 40.8997 31.9648 41.1992C31.7044 41.8633 31.4115 42.3255 31.0859 42.5859C30.3828 43.1458 29.2109 43.4258 27.5703 43.4258C27.2578 43.4258 26.9583 43.4128 26.6719 43.3867L20.7148 42.918C19.7122 45.3008 18.9245 47.625 18.3516 49.8906C17.9089 51.6094 16.2357 52.4688 13.332 52.4688C10.9362 52.4688 9.40625 51.9089 8.74219 50.7891C8.52083 50.4115 8.4362 50.0534 8.48828 49.7148C8.54036 49.3763 8.66406 48.9987 8.85938 48.582C9.06771 48.1523 9.34115 47.625 9.67969 47L12.4531 42.2539C12.401 42.2539 12.2253 42.2409 11.9258 42.2148C11.6393 42.1888 11.4245 42.1562 11.2812 42.1172C10.9297 42 10.6432 41.7852 10.4219 41.4727C10.2005 41.1602 10.0898 40.8346 10.0898 40.4961C10.0898 39.832 10.2852 39.3307 10.6758 38.9922C11.0664 38.6536 11.4701 38.4583 11.8867 38.4062C12.3164 38.3542 12.7786 38.3216 13.2734 38.3086L14.9141 38.2695C16.9193 35.1576 18.3711 32.957 19.2695 31.668C16.0404 31.9023 13.2344 32.6641 10.8516 33.9531C10.1875 34.3177 9.64714 34.6758 9.23047 35.0273C8.82682 35.3789 8.48177 35.5547 8.19531 35.5547C7.90885 35.5547 7.66146 35.5156 7.45312 35.4375C7.25781 35.3464 7.07552 35.2292 6.90625 35.0859C6.54167 34.7604 6.35938 34.4089 6.35938 34.0312C6.35938 33.6406 6.46354 33.2826 6.67188 32.957C9.15885 29.1159 11.9323 26.7656 14.9922 25.9062C16.0729 25.6068 17.2578 25.457 18.5469 25.457C23.9115 25.457 28.1693 25.3919 31.3203 25.2617C34.4844 25.1315 36.2096 25.0469 36.4961 25.0078L38.3125 24.7344C38.612 24.6823 38.8984 24.6562 39.1719 24.6562ZM40.9883 51.3555C40.4935 50.8867 40.1224 50.3594 39.875 49.7734C39.6276 49.1745 39.5039 48.6602 39.5039 48.2305C39.5039 47.7878 39.6211 47.2669 39.8555 46.668C40.0898 46.069 40.4089 45.3789 40.8125 44.5977C41.2161 43.8034 41.6849 42.944 42.2188 42.0195C42.7526 41.082 43.3255 40.138 43.9375 39.1875L45.7734 36.3555C46.4115 35.431 47.0365 34.5716 47.6484 33.7773C45.0443 34.6107 43.1107 35.4245 41.8477 36.2188C40.5977 37 39.6341 37.5729 38.957 37.9375C38.2799 38.3021 37.7201 38.4844 37.2773 38.4844C36.5482 38.4844 36.1836 38.0286 36.1836 37.1172C36.1836 35.8151 36.8607 34.2135 38.2148 32.3125C39.6211 30.3464 41.0729 29.1289 42.5703 28.6602C44.0807 28.1914 45.7604 27.7487 47.6094 27.332C49.4714 26.9023 51.4049 26.5312 53.4102 26.2188C57.7591 25.5417 61.8021 25.2031 65.5391 25.2031C69.8099 25.2031 72.5378 25.6068 73.7227 26.4141C74.7773 27.1302 75.4935 28.1198 75.8711 29.3828C76.0534 29.9948 76.1445 30.6523 76.1445 31.3555C76.1445 32.0586 75.7995 32.7943 75.1094 33.5625C74.4323 34.3177 73.5273 35.0339 72.3945 35.7109C70.2591 37.013 67.4596 38.1849 63.9961 39.2266C65.9622 39.6042 67.3229 40.0404 68.0781 40.5352C68.8464 41.0169 69.3867 41.5052 69.6992 42C70.0117 42.4818 70.168 43.1003 70.168 43.8555C70.168 44.5977 69.8424 45.3659 69.1914 46.1602C68.5404 46.9544 67.6354 47.6966 66.4766 48.3867C65.3307 49.0768 63.9701 49.7018 62.3945 50.2617C60.832 50.8216 59.1328 51.2969 57.2969 51.6875C53.4688 52.5208 49.4844 52.9375 45.3438 52.9375C43.5469 52.9375 42.0951 52.4102 40.9883 51.3555ZM51.8672 36.6875C49.9141 40.0729 48.9375 42.4167 48.9375 43.7188C48.9375 44.3177 49.25 44.8776 49.875 45.3984C50.4609 45.8932 51.0729 46.1406 51.7109 46.1406C52.349 46.1406 53.0521 46.1146 53.8203 46.0625C54.5885 45.9974 55.3763 45.9128 56.1836 45.8086C56.9909 45.7044 57.7852 45.5807 58.5664 45.4375C59.3477 45.2943 60.0443 45.1315 60.6562 44.9492C62.0104 44.5456 62.6875 44.1354 62.6875 43.7188C62.6875 42.9635 61.6393 42.3385 59.543 41.8438C57.8372 41.4531 56.2096 41.2578 54.6602 41.2578C54.0612 41.2578 53.6315 41.1406 53.3711 40.9062C53.1107 40.6589 52.9805 40.3789 52.9805 40.0664C52.9805 39.7409 53.1367 39.4089 53.4492 39.0703C53.7747 38.7188 54.2109 38.4323 54.7578 38.2109C59.1849 37.1042 62.8828 35.8607 65.8516 34.4805C67.3099 33.8034 68.0391 33.2891 68.0391 32.9375C68.0391 32.4297 67.8893 32.0195 67.5898 31.707C67.056 31.1471 66.4635 30.8672 65.8125 30.8672C65.1615 30.8672 64.4193 30.8932 63.5859 30.9453C62.7526 30.9974 61.8542 31.0755 60.8906 31.1797C58.7682 31.388 56.6654 31.6875 54.582 32.0781C54.2826 32.6901 53.8854 33.3802 53.3906 34.1484L51.8672 36.6875Z" fill="#FFC700"/>
</svg>
